# xmcd
#
# Track frame offsets:
# 150
# 29960
# 53338
# 76477
# 84463
# 108775
# 140708
# 164648
# 196566
# 222228
#
# Disc length: 3317 seconds
#
# Revision: 0
# Processed by: cddbd v1.4PL0 Copyright (c) Steve Scherf et al.
# Submitted via: Audion 2.5.0 (http://www.panic.com/audion/)
#
DISCID=840cf30a
DTITLE=Urban - Boxnewmusic - Urban
DYEAR=1900
DGENRE=
TTITLE0=Rump
TTITLE1=Funk Station
TTITLE2=Back Roads
TTITLE3=Good Vibrations
TTITLE4=Spy From Cairo
TTITLE5=New Love
TTITLE6=Funk My Ass
TTITLE7=Smile Reggae
TTITLE8=Funtastik
TTITLE9=Funky Trousers
EXTD=
EXTT0=
EXTT1=
EXTT2=
EXTT3=
EXTT4=
EXTT5=
EXTT6=
EXTT7=
EXTT8=
EXTT9=
PLAYORDER=
